<?xml version="1.0" encoding="utf-8"?>
<!-- Generator: Adobe Illustrator 24.1.1, SVG Export Plug-In . SVG Version: 6.00 Build 0)  -->
<svg version="1.1" id="Layer_1" xmlns="http://www.w3.org/2000/svg" xmlns:xlink="http://www.w3.org/1999/xlink" x="0px" y="0px"
	 viewBox="0 0 70 70" style="enable-background:new 0 0 70 70;" xml:space="preserve">
<style type="text/css">
	.st0{fill:#A8CEFF;}
	.st1{fill:#5F9AFF;}
	.st2{fill:#FF9333;}
	.st3{fill:#2A7BFF;}
	.st4{fill:#CCE2FF;}
</style>
<path class="st0" d="M64.3,26.1c0-3.2-2.7-5.9-5.9-5.9H5.8c-3.2,0-5.9,2.7-5.9,5.9v14.6c0,3.2,2.7,5.9,5.9,5.9h52.7
	c3.2,0,5.9-2.7,5.9-5.9V26.1L64.3,26.1z"/>
<path class="st1" d="M58.5,43.8H5.8c-1.6,0-2.9-1.3-2.9-2.9V26.1c0-1.6,1.3-2.9,2.9-2.9h52.7c1.6,0,2.9,1.3,2.9,2.9v14.6
	C61.4,42.4,60.1,43.8,58.5,43.8z"/>
<g>
	<path class="st2" d="M12.7,32.2c-0.3-0.5-1-0.7-1.4-0.4l-0.2,0.1v-0.3c0-0.6-0.5-1-1-1s-1,0.5-1,1v0.3l-0.3-0.1
		c-0.5-0.3-1.2-0.1-1.4,0.4c-0.3,0.5-0.1,1.2,0.4,1.4L8,33.8l-0.3,0.1c-0.5,0.3-0.7,1-0.4,1.4c0.2,0.3,0.5,0.5,0.9,0.5
		c0.2,0,0.3-0.1,0.5-0.1L9,35.6v0.3c0,0.6,0.5,1,1,1c0.6,0,1-0.5,1-1v-0.3l0.3,0.1c0.1,0.1,0.3,0.1,0.5,0.1c0.3,0,0.8-0.2,0.9-0.5
		c0.3-0.5,0.1-1.2-0.4-1.4l-0.3-0.1l0.3-0.1C12.9,33.3,13.1,32.7,12.7,32.2z"/>
	<path class="st2" d="M21.2,32.2c-0.3-0.5-1-0.7-1.4-0.4l-0.3,0.1v-0.3c0-0.6-0.5-1-1-1s-1,0.5-1,1v0.3l-0.3-0.1
		c-0.5-0.3-1.2-0.1-1.4,0.4c-0.3,0.5-0.1,1.2,0.4,1.4l0.3,0.1l-0.3,0.1c-0.5,0.3-0.7,1-0.4,1.4c0.2,0.3,0.5,0.5,0.9,0.5
		c0.2,0,0.3-0.1,0.5-0.1l0.3-0.1v0.3c0,0.6,0.5,1,1,1c0.5,0,1-0.5,1-1v-0.3l0.3,0.1c0.1,0.1,0.3,0.1,0.5,0.1c0.3,0,0.8-0.2,0.9-0.5
		c0.3-0.5,0.1-1.2-0.4-1.4l-0.3-0.1l0.3-0.1C21.3,33.3,21.5,32.7,21.2,32.2z"/>
	<path class="st2" d="M29.6,32.2c-0.3-0.5-1-0.7-1.4-0.4L28,31.9v-0.3c0-0.6-0.5-1-1-1c-0.6,0-1,0.5-1,1v0.3l-0.3-0.1
		c-0.5-0.3-1.2-0.1-1.4,0.4c-0.3,0.5-0.1,1.2,0.4,1.4l0.3,0.1l-0.3,0.1c-0.5,0.3-0.7,1-0.4,1.4c0.2,0.3,0.5,0.5,0.9,0.5
		c0.2,0,0.3-0.1,0.5-0.1l0.3-0.1v0.3c0,0.6,0.5,1,1,1c0.6,0,1-0.5,1-1v-0.3l0.3,0.1c0.1,0.1,0.3,0.1,0.5,0.1c0.3,0,0.8-0.2,0.9-0.5
		c0.3-0.5,0.1-1.2-0.4-1.4L29,33.8l0.3-0.1C29.8,33.3,30,32.7,29.6,32.2z"/>
</g>
<path class="st2" d="M38.1,32.2c-0.3-0.5-1-0.7-1.4-0.4l-0.3,0.1v-0.3c0-0.6-0.5-1-1-1c-0.6,0-1,0.5-1,1v0.3l-0.3-0.1
	c-0.5-0.3-1.2-0.1-1.4,0.4c-0.3,0.5-0.1,1.2,0.4,1.4l0.3,0.1l-0.3,0.1c-0.5,0.3-0.7,1-0.4,1.4c0.2,0.3,0.5,0.5,0.9,0.5
	c0.2,0,0.3-0.1,0.5-0.1l0.3-0.1v0.3c0,0.6,0.5,1,1,1c0.6,0,1-0.5,1-1v-0.3l0.3,0.1c0.1,0.1,0.3,0.1,0.5,0.1c0.3,0,0.8-0.2,0.9-0.5
	c0.3-0.5,0.1-1.2-0.4-1.4l-0.2-0.1l0.3-0.1C38.3,33.3,38.4,32.7,38.1,32.2z"/>
<path class="st2" d="M46.8,32.2c-0.3-0.5-1-0.7-1.4-0.4l-0.3,0.1v-0.3c0-0.6-0.5-1-1-1c-0.6,0-1,0.5-1,1v0.3l-0.3-0.1
	c-0.5-0.3-1.2-0.1-1.4,0.4c-0.3,0.5-0.1,1.2,0.4,1.4l0.3,0.1l-0.3,0.1c-0.5,0.3-0.7,1-0.4,1.4c0.2,0.3,0.5,0.5,0.9,0.5
	c0.2,0,0.3-0.1,0.5-0.1l0.3-0.1v0.3c0,0.6,0.5,1,1,1c0.6,0,1-0.5,1-1v-0.3l0.3,0.1c0.1,0.1,0.3,0.1,0.5,0.1c0.3,0,0.8-0.2,0.9-0.5
	c0.3-0.5,0.1-1.2-0.4-1.4l-0.2-0.1l0.3-0.1C47,33.3,47.1,32.7,46.8,32.2z"/>
<path class="st2" d="M55.5,32.2c-0.3-0.5-1-0.7-1.4-0.4l-0.3,0.1v-0.3c0-0.6-0.5-1-1-1c-0.6,0-1,0.5-1,1v0.3l-0.3-0.1
	c-0.5-0.3-1.2-0.1-1.4,0.4c-0.3,0.5-0.1,1.2,0.4,1.4l0.3,0.1l-0.3,0.1c-0.5,0.3-0.7,1-0.4,1.4c0.2,0.3,0.5,0.5,0.9,0.5
	c0.2,0,0.3-0.1,0.5-0.1l0.3-0.1v0.3c0,0.6,0.5,1,1,1c0.6,0,1-0.5,1-1v-0.3l0.3,0.1c0.1,0.1,0.3,0.1,0.5,0.1c0.3,0,0.8-0.2,0.9-0.5
	c0.3-0.5,0.1-1.2-0.4-1.4l-0.2-0.1l0.3-0.1C55.7,33.3,55.8,32.7,55.5,32.2z"/>
<path class="st3" d="M68.4,38.4v-0.8c0-3.2-2.6-5.8-5.8-5.8c-3.2,0-5.8,2.6-5.8,5.8v0.8c-0.9,0-1.6,0.7-1.6,1.6v8.3
	c0,0.9,0.7,1.6,1.6,1.6h11.6c0.9,0,1.6-0.7,1.6-1.6V40C70,39.1,69.3,38.4,68.4,38.4z M66.7,38.4h-8.3v-0.8c0-2.3,1.9-4.2,4.2-4.2
	s4.2,1.9,4.2,4.2L66.7,38.4L66.7,38.4z"/>
<polygon class="st4" points="68.4,48.3 56.7,48.3 56.7,40 56.7,40 56.7,40 68.4,40 "/>
<path class="st2" d="M62.5,41.6c-0.9,0-1.6,0.7-1.6,1.6c0,0.6,0.3,1.1,0.8,1.4v1.1c0,0.5,0.4,0.8,0.8,0.8c0.5,0,0.8-0.4,0.8-0.8
	v-1.1c0.5-0.3,0.8-0.8,0.8-1.4C64.2,42.4,63.4,41.6,62.5,41.6z M62.5,43.3L62.5,43.3h0.8H62.5z"/>
</svg>
